<?xml version="1.0" encoding="UTF-8"?>
<svg id="Layer_2" data-name="Layer 2" xmlns="http://www.w3.org/2000/svg" viewBox="0 0 291.37 286.76">
  <defs>
    <style>
      .cls-1 {
        fill: #006fff;
      }
    </style>
  </defs>
  <g id="Layer_1-2" data-name="Layer 1">
    <path class="cls-1" d="m228.12,254.31c20.89-.66,39.34-3.65,53.1-11.42-38.45,48.52-187.73,9.1-251.77,23.4,8.09-5.35,17.52-9.1,27.9-11.69-10.25-8.82-27.74-26.72-33.68-50.35,0,0,174.3-3.12,257.55-62.68,0,0-5.03,73.06-53.1,112.73h0Zm-74.29-175.19c-1.34.34-2.34.96-2.95,1.88-.7,1.04-1.05,2.09-1.05,3.13,0,1.26.41,2.17,1.23,2.78.7.51,1.63.82,2.76.95v-8.73Zm6.84,19.46c.41-.81.63-1.73.63-2.73,0-1.59-.57-2.71-1.72-3.37-.58-.34-1.51-.6-2.76-.81v9.77c1.83-.46,3.1-1.42,3.85-2.86h0Zm-31.48-4.44c0-14.57,11.7-28.02,26.12-30.04,14.42-2.02,26.1,8.15,26.1,22.72s-11.68,28-26.1,30.02c-14.42,2.02-26.12-8.14-26.12-22.7h0Zm24.64-2.8v10.42c-1.8-.02-3.06-.61-3.76-1.82-.44-.74-.72-1.97-.82-3.7l-3.34.47c0,2.18.37,3.86,1.08,5.04,1.23,2.07,3.52,3.02,6.83,2.9v3.03l2.99-.42v-3.05c1.96-.55,3.53-1.25,4.62-2.11,2.17-1.73,3.25-4.28,3.25-7.66,0-2.33-.84-3.99-2.54-4.93-.96-.54-2.75-1-5.34-1.39v-9.37c1.43-.02,2.5.49,3.18,1.52.43.64.69,1.44.77,2.39l3.3-.46c-.07-2.15-.76-3.78-2.1-4.91-1.22-1.04-2.95-1.52-5.15-1.45v-2.55l-2.99.42v2.55c-2.23.45-3.99,1.47-5.28,3.07-1.4,1.74-2.11,3.57-2.11,5.5,0,2.16.64,3.75,1.95,4.79,1.19.96,3.02,1.53,5.44,1.72h0Zm-103.25,78.52c6.79,1.02,13.19-.69,19.48-2.23-.7,4.59-1.55,9.11-2.57,13.51,9.67,1.46,18.74-1.36,27.68-3.47-.2.88-.39,1.75-.59,2.63l-1.22,5.25,5.2.35c20.67,1.36,34.28-12.12,51.47-20.67,5.19-2.58,10.96-4.1,17.06-5.05-13.16-6.54-37.3,5.08-46.81,10.45-9.51,5.36-8.3-30.21-8.3-48.01l-.02.02c-.01-11.73-1.22-23.43-4.05-34.84-4.21-17-11.56-33.3-19.6-48.6-2.38-4.53-2.14-9.99,2.76-12.93.03-.02.06-.04.09-.05,4.43-2.69,9.07-5.05,13.84-7.09,17.63-7.53,38.75-8.09,56.39-.31,40.65,17.9,41.26,74.1,36.52,111.24-.93,7.3-2.21,14.59-3.96,21.69-1.47,5.93-5.99,10.65-11.89,12.24-.52.14-1.04.27-1.57.39-4.76,1.15-9.88,1.82-15.08,2.78-5.2.97-10.57,2.39-15.52,4.92-2.43,1.25-4.75,2.74-6.8,4.56-1.57,1.39-3.51,5.3-5.18,6.13,4.53-2.25,9-4.35,13.95-5.54,14.16-3.42,29.75-1.04,42.95-8.27,7.37-4.04,8.48-13.78,10.33-21.22,2.12-8.55,3.65-17.24,4.72-25.98.94-7.69,1.56-15.7,1.67-23.79.39-30.07-6.29-61.27-29.71-81.4C148.91-11.73,100.51-.79,70.97,26.92c0,0-4.14,3.89-4.14,3.89l3.74,4.07c.73.79,1.41,1.62,2.12,2.44-6.65,2.75-17.66,8.13-25.14,16.05,1.75,2,3.39,4.18,4.95,6.47-5.14,2.3-12.25,6.13-17.3,11.47,18.55,21.31,23.3,64.45,15.39,98.55h0ZM122.26,21.11c26.29,5.19,44.07,14.05,60.19,29.05-7.35-21.19-33.81-33.64-60.19-29.05h0Zm164.64,177.17c2.2,11.95-12.43,37.3-36.57,44.61,17.55-1.71,53.63-18.28,36.57-44.61h0ZM2.64,235.82c-12.43,33.4,22.19,22.43,39.01,15.36-22.43,4.63-37.3,2.2-39.01-15.36h0Zm33.32,43.41c47.46,2.11,119.38,17.95,168.7-3.83-62.41,5.53-130.34-8.57-168.7,3.83h0Z"/>
  </g>
</svg>