<?xml version="1.0" encoding="UTF-8"?>
<svg id="Layer_2" data-name="Layer 2" xmlns="http://www.w3.org/2000/svg" viewBox="0 0 397.9 106.17">
  <defs>
    <style>
      .cls-1 {
        fill: #006fff;
      }
    </style>
  </defs>
  <g id="Layer_1-2" data-name="Layer 1">
    <path class="cls-1" d="m84.46,94.15c7.73-.25,14.56-1.35,19.66-4.23-14.23,17.96-69.5,3.37-93.21,8.66,2.99-1.98,6.49-3.37,10.33-4.33-3.8-3.27-10.27-9.89-12.47-18.64,0,0,64.53-1.16,95.35-23.2,0,0-1.86,27.05-19.66,41.74h0ZM56.95,29.29c-.49.13-.86.35-1.09.7-.26.38-.39.77-.39,1.16,0,.47.15.8.46,1.03.26.19.6.3,1.02.35v-3.23Zm2.53,7.2c.15-.3.23-.64.23-1.01,0-.59-.21-1-.64-1.25-.21-.13-.56-.22-1.02-.3v3.62c.68-.17,1.15-.53,1.43-1.06h0Zm-11.65-1.64c0-5.39,4.33-10.37,9.67-11.12,5.34-.75,9.66,3.02,9.66,8.41s-4.33,10.37-9.66,11.12c-5.34.75-9.67-3.01-9.67-8.41h0Zm9.12-1.04v3.86c-.67,0-1.13-.23-1.39-.67-.16-.28-.26-.73-.3-1.37l-1.24.17c0,.81.14,1.43.4,1.87.46.76,1.3,1.12,2.53,1.07v1.12l1.11-.16v-1.13c.73-.21,1.31-.46,1.71-.78.8-.64,1.2-1.58,1.2-2.83,0-.86-.31-1.48-.94-1.83-.36-.2-1.02-.37-1.98-.51v-3.47c.53,0,.92.18,1.18.56.16.24.26.53.29.88l1.22-.17c-.03-.8-.28-1.4-.78-1.82-.45-.38-1.09-.56-1.91-.54v-.95l-1.11.15v.95c-.83.17-1.48.54-1.96,1.14-.52.64-.78,1.32-.78,2.04,0,.8.24,1.39.72,1.77.44.36,1.12.57,2.01.64h0Zm-38.23,29.07c2.51.38,4.88-.25,7.21-.82-.26,1.7-.57,3.37-.95,5,3.58.54,6.94-.5,10.25-1.28-.07.32-.14.65-.22.97l-.45,1.94,1.92.13c7.65.5,12.69-4.49,19.05-7.65,1.92-.95,4.06-1.52,6.32-1.87-4.87-2.42-13.81,1.88-17.33,3.87-3.52,1.99-3.07-11.18-3.07-17.77h0c0-4.34-.45-8.67-1.5-12.89-1.56-6.29-4.28-12.33-7.26-17.99-.88-1.68-.79-3.7,1.02-4.79.01,0,.02-.01.03-.02,1.64-1,3.36-1.87,5.12-2.62,6.53-2.79,14.34-2.99,20.88-.12,15.05,6.63,15.27,27.43,13.52,41.18-.34,2.7-.82,5.4-1.47,8.03-.54,2.2-2.22,3.94-4.4,4.53-.19.05-.38.1-.58.15-1.76.43-3.66.68-5.58,1.03-1.93.36-3.91.89-5.74,1.82-.9.46-1.76,1.01-2.52,1.69-.58.52-1.3,1.96-1.92,2.27,1.68-.83,3.33-1.61,5.16-2.05,5.24-1.27,11.01-.38,15.9-3.06,2.73-1.5,3.14-5.1,3.83-7.86.78-3.17,1.35-6.38,1.75-9.62.35-2.85.58-5.81.62-8.81.14-11.13-2.33-22.68-11-30.14C55.13-4.34,37.21-.29,26.27,9.97c0,0-1.53,1.44-1.53,1.44l1.39,1.51c.27.29.52.6.79.9-2.46,1.02-6.54,3.01-9.31,5.94.65.74,1.26,1.55,1.83,2.39-1.9.85-4.54,2.27-6.4,4.25,6.87,7.89,8.63,23.86,5.7,36.49h0ZM45.26,7.82c9.73,1.92,16.32,5.2,22.28,10.76-2.72-7.84-12.52-12.45-22.28-10.76h0Zm60.95,65.59c.81,4.42-4.6,13.81-13.54,16.52,6.5-.63,19.86-6.77,13.54-16.52h0ZM.98,87.31c-4.6,12.37,8.21,8.3,14.44,5.69-8.3,1.72-13.81.81-14.44-5.69h0Zm12.34,16.07c17.57.78,44.2,6.65,62.46-1.42-23.11,2.05-48.26-3.17-62.46,1.42h0Z"/>
    <g>
      <path class="cls-1" d="m141.19,34.43v52.78h-9.58v-52.78h9.58Zm20.74,0h11.74l-18.07,25.2,19.51,27.58h-11.81l-18.86-27.58,17.5-25.2Z"/>
      <path class="cls-1" d="m213.55,53.37v31.82c-1.82,1.06-4.09,1.81-6.8,2.27-2.71.46-5.32.68-7.81.68-6.62,0-11.4-1.4-14.33-4.21-2.93-2.81-4.42-6.49-4.46-11.05-.05-6.53-.05-13.03,0-19.51h9.36l-.07,5.9c0,5.33.02,9.36.07,12.1.05,2.83.76,4.88,2.12,6.16,1.37,1.27,3.49,1.91,6.37,1.91,1.3,0,2.52-.11,3.67-.32,1.15-.22,2.02-.47,2.59-.76v-24.98h9.29Z"/>
      <path class="cls-1" d="m234.75,87.21c-1.8-.62-3.11-1.46-3.92-2.52l.07,1.94v.58h-9.43v-52.78h9.14v18.79l-.14,2.38c.72-.86,2.02-1.6,3.89-2.2,1.87-.6,3.67-.9,5.4-.9,3.65,0,6.8.8,9.47,2.41,2.66,1.61,4.69,3.77,6.08,6.48,1.39,2.71,2.09,5.7,2.09,8.96,0,3.6-.7,6.73-2.09,9.4-1.39,2.66-3.41,4.73-6.05,6.19-2.64,1.46-5.81,2.2-9.5,2.2-1.54,0-3.2-.31-5-.94Zm.07-24.98c-1.37.82-2.44,1.94-3.2,3.38-.77,1.44-1.15,3.02-1.15,4.75s.38,3.37,1.15,4.79c.77,1.42,1.84,2.52,3.2,3.31,1.37.79,2.89,1.19,4.57,1.19s3.17-.38,4.46-1.15c1.3-.77,2.29-1.86,2.99-3.28.7-1.42,1.04-3.04,1.04-4.86s-.35-3.46-1.04-4.9c-.7-1.44-1.69-2.54-2.99-3.31-1.3-.77-2.78-1.15-4.46-1.15s-3.2.41-4.57,1.22Z"/>
      <path class="cls-1" d="m289.54,86.88c-2.66,1.03-5.36,1.55-8.1,1.55-3.74,0-6.95-.79-9.61-2.38-2.66-1.58-4.7-3.73-6.12-6.44-1.42-2.71-2.12-5.77-2.12-9.18s.7-6.6,2.09-9.29c1.39-2.69,3.4-4.8,6.01-6.34,2.62-1.54,5.75-2.3,9.4-2.3s6.72.76,9.36,2.27c2.64,1.51,4.64,3.64,6.01,6.37s2.05,5.83,2.05,9.29c0,1.25-.02,2.21-.07,2.88h-25.49c.14,1.44.59,2.68,1.33,3.71.74,1.03,1.73,1.82,2.95,2.38,1.22.55,2.63.83,4.21.83,1.78,0,3.42-.3,4.93-.9,1.51-.6,2.77-1.43,3.78-2.48l5.4,6.05c-1.34,1.63-3.35,2.96-6.01,4Zm-1.84-23.11c-.72-.98-1.67-1.74-2.84-2.27-1.18-.53-2.44-.79-3.78-.79s-2.68.26-3.85.79c-1.18.53-2.14,1.28-2.88,2.27-.75.98-1.17,2.1-1.26,3.35h15.84c-.1-1.25-.5-2.36-1.22-3.35Z"/>
      <path class="cls-1" d="m337.46,43.07h-19.73v13.18h16.56v8.86h-16.56v22.1h-10.66v-52.78h30.38v8.64Z"/>
      <path class="cls-1" d="m355.67,87.21h-9v-25.78h-4.1l1.58-8.06h11.52v33.84Zm.22-49.54v9.94h-10.37v-9.94h10.37Z"/>
      <path class="cls-1" d="m364.31,87.21v-31.82c1.82-1.06,4.1-1.81,6.84-2.27,2.74-.46,5.38-.68,7.92-.68,6.62,0,11.4,1.4,14.33,4.21,2.93,2.81,4.42,6.49,4.46,11.05.05,6.48.05,12.98,0,19.51h-9.43c.1-6,.1-12,0-18-.05-2.78-.76-4.82-2.12-6.12-1.37-1.3-3.49-1.94-6.37-1.94-1.3,0-2.54.11-3.74.32-1.2.22-2.06.47-2.59.76v24.98h-9.29Z"/>
    </g>
  </g>
</svg>